<svg xmlns="http://www.w3.org/2000/svg" viewBox="0 0 64 64" width="64" height="64">
  <defs>
    <linearGradient id="grad1" x1="0%" y1="0%" x2="100%" y2="100%">
      <stop offset="0%" style="stop-color:#C41A68"/>
      <stop offset="100%" style="stop-color:#F0967D"/>
    </linearGradient>
    <linearGradient id="grad2" x1="0%" y1="0%" x2="100%" y2="100%">
      <stop offset="0%" style="stop-color:#D42A75"/>
      <stop offset="100%" style="stop-color:#F4A08A"/>
    </linearGradient>
  </defs>
  <!-- Outer arc (top-left going right) -->
  <path d="M8 56 L8 20 C8 12 14 4 24 4 L56 4 C56 4 56 12 48 12 L24 12 C18 12 16 16 16 20 L16 56 Z" fill="url(#grad1)"/>
  <!-- Inner arc (bottom-right curve) -->
  <path d="M24 56 L24 34 C24 28 28 24 34 24 L56 24 C56 24 56 32 48 32 L34 32 C30 32 32 34 32 38 L32 56 C32 60 28 60 24 56 Z" fill="url(#grad2)"/>
</svg>
